<svg width="16" height="16" viewBox="0 0 16 16" fill="none" xmlns="http://www.w3.org/2000/svg">
<path d="M6.62455 10.3334C6.56503 10.1026 6.44477 9.89209 6.27629 9.72361C6.10781 9.55513 5.89726 9.43488 5.66655 9.37536L1.57655 8.32069C1.50677 8.30088 1.44535 8.25886 1.40162 8.20099C1.35789 8.14312 1.33423 8.07256 1.33423 8.00002C1.33423 7.92749 1.35789 7.85693 1.40162 7.79906C1.44535 7.74119 1.50677 7.69916 1.57655 7.67936L5.66655 6.62402C5.89718 6.56456 6.10767 6.44441 6.27615 6.27605C6.44462 6.10769 6.56492 5.89728 6.62455 5.66669L7.67921 1.57669C7.69882 1.50664 7.7408 1.44492 7.79876 1.40095C7.85672 1.35699 7.92747 1.33319 8.00021 1.33319C8.07296 1.33319 8.14371 1.35699 8.20166 1.40095C8.25962 1.44492 8.30161 1.50664 8.32121 1.57669L9.37521 5.66669C9.43473 5.8974 9.55499 6.10795 9.72347 6.27644C9.89195 6.44492 10.1025 6.56517 10.3332 6.62469L14.4232 7.67869C14.4935 7.69809 14.5556 7.74003 14.5998 7.79807C14.644 7.85612 14.6679 7.92706 14.6679 8.00002C14.6679 8.07298 14.644 8.14393 14.5998 8.20197C14.5556 8.26002 14.4935 8.30196 14.4232 8.32136L10.3332 9.37536C10.1025 9.43488 9.89195 9.55513 9.72347 9.72361C9.55499 9.89209 9.43473 10.1026 9.37521 10.3334L8.32055 14.4234C8.30094 14.4934 8.25896 14.5551 8.201 14.5991C8.14304 14.6431 8.07229 14.6669 7.99955 14.6669C7.9268 14.6669 7.85605 14.6431 7.79809 14.5991C7.74013 14.5551 7.69815 14.4934 7.67855 14.4234L6.62455 10.3334Z" stroke="#C9A961" stroke-width="1.33333" stroke-linecap="round" stroke-linejoin="round"/>
<path d="M13.3333 2V4.66667" stroke="#C9A961" stroke-width="1.33333" stroke-linecap="round" stroke-linejoin="round"/>
<path d="M14.6667 3.33331H12" stroke="#C9A961" stroke-width="1.33333" stroke-linecap="round" stroke-linejoin="round"/>
<path d="M2.66675 11.3333V12.6666" stroke="#C9A961" stroke-width="1.33333" stroke-linecap="round" stroke-linejoin="round"/>
<path d="M3.33333 12H2" stroke="#C9A961" stroke-width="1.33333" stroke-linecap="round" stroke-linejoin="round"/>
</svg>
